<?xml version="1.0" encoding="UTF-8"?>
<svg width="40px" height="40px" viewBox="0 0 40 40" version="1.1" xmlns="http://www.w3.org/2000/svg" xmlns:xlink="http://www.w3.org/1999/xlink">
    <title>BlueSky</title>
    <g id="BlueSky" stroke="none" stroke-width="1" fill="none" fill-rule="evenodd">
        <path d="M9.8035625,6.1124502 C13.930625,9.18078544 18.3704375,15.4012841 20,18.7394242 L20,27.5563773 C20,27.3687353 19.926875,27.5808041 19.769375,28.0376957 C18.918875,30.5114612 15.59675,40.1661415 8.0001875,32.4478378 C4.00025,28.3841117 5.852,24.3203856 13.133,23.0934957 C8.9676875,23.7952101 4.284875,22.6354938 3.000125,18.0887839 C2.63,16.7808414 2,8.72444899 2,7.63634747 C2,2.18584713 6.8256875,3.89905186 9.8035625,6.1124502 Z M30.1964375,6.1124502 C26.069375,9.18078544 21.6295625,15.4012841 20,18.7394242 L20,27.5563773 C20,27.3687353 20.073125,27.5808041 20.230625,28.0376957 C21.081125,30.5114612 24.40325,40.1661415 31.9998125,32.4478378 C35.99975,28.3841117 34.148,24.3203856 26.867,23.0934957 C31.0323125,23.7952101 35.715125,22.6354938 36.999875,18.0887839 C37.37,16.7808414 38,8.72444899 38,7.63634747 C38,2.18584713 33.174875,3.89905186 30.1964375,6.1124502 L30.1964375,6.1124502 Z" id="Shape" fill="#000000" fill-rule="nonzero"></path>
    </g>
</svg>