<?xml version="1.0" encoding="UTF-8"?>
<svg width="48px" height="48px" viewBox="0 0 48 48" version="1.1" xmlns="http://www.w3.org/2000/svg" xmlns:xlink="http://www.w3.org/1999/xlink">
    <title>Email</title>
    <g id="Email" stroke="none" stroke-width="1" fill="none" fill-rule="evenodd">
        <path d="M11.65625,37.4609375 L36.8125,37.4609375 C39.625,37.4609375 41.25,35.8359375 41.25,32.6171875 L41.25,15.3671875 C41.25,12.1640625 39.609375,10.5390625 36.34375,10.5390625 L11.1875,10.5390625 C8.375,10.5390625 6.75,12.1484375 6.75,15.3671875 L6.75,32.6171875 C6.75,35.8515625 8.390625,37.4609375 11.65625,37.4609375 Z M22.140625,24.7890625 L10.34375,13.1484375 C10.6875,13.0078125 11.09375,12.9296875 11.5625,12.9296875 L36.4375,12.9296875 C36.921875,12.9296875 37.34375,13.0078125 37.6875,13.1640625 L25.921875,24.7890625 C25.25,25.4609375 24.640625,25.7578125 24.03125,25.7578125 C23.40625,25.7578125 22.796875,25.4453125 22.140625,24.7890625 Z M9.140625,32.6171875 L9.140625,15.3671875 C9.140625,15.2421875 9.140625,15.3046875 9.140625,15.1953125 L18.125,24.0234375 L9.15625,32.8828125 C9.140625,32.8046875 9.140625,32.7109375 9.140625,32.6171875 Z M38.859375,15.3828125 L38.859375,32.6328125 C38.859375,32.6953125 38.859375,32.7734375 38.859375,32.8359375 L29.9375,24.0234375 L38.859375,15.2421875 C38.859375,15.3828125 38.859375,15.3828125 38.859375,15.3828125 Z M11.5625,35.0703125 C11.125,35.0703125 10.75,35.0078125 10.421875,34.8671875 L19.765625,25.6328125 L20.78125,26.6328125 C21.875,27.7109375 22.921875,28.1640625 24.03125,28.1640625 C25.125,28.1640625 26.1875,27.7109375 27.28125,26.6328125 L28.296875,25.6328125 L37.625,34.8515625 C37.28125,35.0078125 36.890625,35.0703125 36.4375,35.0703125 L11.5625,35.0703125 Z" id="Shape" fill="#FF009E" fill-rule="nonzero"></path>
    </g>
</svg>