<?xml version="1.0" encoding="UTF-8"?>
<svg width="64px" height="64px" viewBox="0 0 64 64" version="1.1" xmlns="http://www.w3.org/2000/svg" xmlns:xlink="http://www.w3.org/1999/xlink">
    <title>Favicon</title>
    <g id="Favicon" stroke="none" stroke-width="1" fill="none" fill-rule="evenodd">
        <path d="M32.0019008,56 L32,56 L31.9981008,56 L31.9981,56 C18.7433,55.9989502 7.999,45.2529 8,31.9981 C8.00104977,18.7433 18.7471,7.999 32.0019,8 C45.2567,8.00104977 56.001,18.7471 56,32.0019 C55.9989504,45.2552 45.2552,55.999 32.0019,56 L32.0019008,56 Z M21.5349008,47.9051 L21.5349017,47.9051018 C20.9413557,46.7524818 20.4296217,45.5595418 20.0035017,44.3351018 L20.0035017,44.3351018 C19.9349221,44.1359008 19.7480727,44.0016868 19.5374017,44.0002951 L17.0584017,44.0002951 L17.0584017,44.0002951 C16.7825947,43.998887 16.5578617,44.2213258 16.5564401,44.4971338 C16.5558593,44.6116458 16.5946437,44.7228808 16.6663017,44.8122018 L16.6663014,44.8122014 C17.8699614,46.2469914 19.2683314,47.5064114 20.8208014,48.5539014 L20.8208014,48.5539014 C21.0501674,48.7054814 21.3589844,48.6424237 21.5105644,48.4130584 C21.6110754,48.2609684 21.6204114,48.0661024 21.5349012,47.9051004 L21.5349008,47.9051 Z M14.0230008,40.0001095 L18.2118008,40.0001095 L18.2118007,40.0001095 C18.4833537,40.001771 18.7048457,39.782988 18.7065261,39.511435 C18.7067199,39.4784271 18.7035987,39.4454826 18.6972004,39.4131 L18.6971997,39.4130964 C18.3876837,37.7800464 18.1829327,36.1288764 18.0841997,34.4696964 L18.0841997,34.4696965 C18.0705734,34.2071695 17.8543777,34.0009345 17.5914997,33.9996965 L12.6695997,33.9996965 L12.6695998,33.9996965 C12.3896468,33.9999245 12.1628848,34.2270565 12.1631126,34.5070095 C12.1631126,34.5264208 12.1642594,34.5458151 12.1664996,34.5650967 L12.166499,34.5650919 C12.397911,36.3282819 12.864912,38.0524319 13.554999,39.6913919 L13.554999,39.6913919 C13.6347587,39.8790179 13.819128,40.0006349 14.023003,40.0001095 L14.0230008,40.0001095 Z M12.6699008,30.000103 L17.5915008,30.000103 L17.5915008,30.000103 C17.8541948,29.9988772 18.0703188,29.79293 18.0842008,29.5306 L18.084199,29.5306299 C18.1829234,27.8714199 18.387672,26.2202199 18.697192,24.5871499 L18.697192,24.58715 C18.7498852,24.320753 18.576644,24.062079 18.310247,24.009386 C18.2778259,24.0029731 18.2448408,23.9998453 18.2117921,24.0000405 L14.0230021,24.0000405 L14.0230021,24.0000405 C13.8193121,23.9995882 13.6351151,24.121048 13.5553021,24.30845 L13.5553016,24.308451 C12.8652416,25.947411 12.3982416,27.671571 12.1668016,29.434751 L12.1668016,29.434751 C12.1345194,29.712837 12.3337826,29.964439 12.6118676,29.996722 C12.6310322,29.9989468 12.6503081,30.000103 12.6696014,30.000103 L12.6699008,30.000103 Z M17.0584008,20.0001066 L19.5374008,20.0001066 L19.5374008,20.0001066 C19.7480548,19.9987599 19.9349128,19.86458 20.0035008,19.6654 L20.0035016,19.6653976 C20.4295126,18.4409176 20.9412456,17.2479676 21.5349016,16.0953976 L21.5349016,16.0953976 C21.6636876,15.8525006 21.5711828,15.5511906 21.3282856,15.4224046 C21.1673966,15.3370997 20.9727676,15.3464548 20.8208016,15.4467975 L20.8208033,15.4467964 C19.2683533,16.4942364 17.8699833,17.7535964 16.6663033,19.1882964 L16.6663033,19.1882964 C16.4937643,19.4034754 16.5283303,19.7177824 16.743509,19.8903224 C16.8327939,19.9619147 16.943959,20.0006694 17.058401,20.0001066 L17.0584008,20.0001066 Z M29.2396008,12.7742 C27.2696008,13.9064 25.5539008,16.2255 24.2854008,19.3101 L24.2854008,19.3100999 C24.1826198,19.5687209 24.3089526,19.8616949 24.5675738,19.9644769 C24.6263672,19.9878426 24.6890348,19.9999276 24.7523008,20.0001002 L29.4996008,20.0001002 L29.4996008,20.0001002 C29.7757428,20.0001002 29.9996008,19.7762422 29.9996008,19.5001002 L29.9996008,13.2087002 L29.9996008,13.2087035 C29.998164,12.9294165 29.7705928,12.7041745 29.4913058,12.7056047 C29.4028504,12.7060666 29.3160618,12.7297158 29.2396038,12.7741984 L29.2396008,12.7742 Z M29.4996008,23.9999903 L23.2472008,23.9999903 L23.2472008,23.9999903 C23.0090388,23.9985304 22.8026668,24.164706 22.7533008,24.3977 L22.7533009,24.3976993 C22.4115139,26.0687993 22.1867679,27.7617093 22.0807009,29.4640993 L22.0807009,29.4640996 C22.064682,29.7436496 22.2783159,29.9832556 22.5578659,29.9992736 C22.5667689,29.9997838 22.5756838,30.0000989 22.5846013,30.0000989 L29.4996013,30.0000989 L29.4996013,30.0000989 C29.7757433,30.0000989 29.9996013,29.7762409 29.9996013,29.5000989 L29.9996013,24.5000989 L29.9996013,24.4999903 C29.9996013,24.2238576 29.7757433,23.9999903 29.4996013,23.9999903 C29.4995682,23.9999903 29.4995351,23.9999903 29.499502,23.9999903 L29.4996008,23.9999903 Z M29.4996008,34 L22.5846008,34 L22.5846008,34 C22.3045398,34.0013088 22.0785678,34.229404 22.0798701,34.509464 C22.0798701,34.5183483 22.0801923,34.5272299 22.0807005,34.5360998 L22.0807007,34.5361042 C22.1867677,36.2384642 22.4115137,37.9313442 22.7533017,39.6024042 L22.7533017,39.6024041 C22.8027089,39.8353581 23.0090707,40.0014831 23.2472017,40.0000139 L29.4996017,40.0000139 L29.4996017,40.0000139 C29.7757437,40.0000139 29.9996017,39.7761461 29.9996017,39.5 L29.9996017,34.5 L29.9996017,34.5000998 C29.9996017,34.2239948 29.7758027,34.0001528 29.4996977,34.0000998 L29.4996008,34 Z M29.4996008,44 L24.7520008,44 L24.7520008,44 C24.4736508,44.0008405 24.2486848,44.227169 24.2495225,44.50552 C24.2497156,44.5686997 24.2617838,44.63128 24.2851005,44.69 C25.5536005,47.7746 27.2694005,50.0937 29.2393005,51.2259 L29.2393005,51.2259 C29.4804825,51.366735 29.7901675,51.2853885 29.9310035,51.044207 C29.9758164,50.9674645 29.9996146,50.880268 30.0000008,50.7914 L30.0000008,44.5001 L30.0000008,44.5000998 C30.0000008,44.2239578 29.7761428,44.0000998 29.5000008,44.0000998 C29.4998674,44.0000998 29.499734,44.0000999 29.4996006,44.0001 L29.4996008,44 Z M51.3296008,34 L46.4085008,34 L46.4085007,34 C46.1457897,34.0012669 45.9296337,34.207161 45.9156007,34.4695 L45.9156006,34.4695024 C45.8169722,36.1287324 45.6122196,37.7799424 45.3026006,39.4130024 L45.3026006,39.4130023 C45.2500733,39.6795443 45.4235666,39.9382023 45.6901096,39.9907293 C45.7224139,39.9970955 45.7552758,40.0002022 45.7882009,40.0000116 L49.9767009,40.0000116 L49.9767009,40.0000116 C50.1804189,40.0005749 50.3646859,39.8791346 50.4445009,39.6917026 L50.4445014,39.6917013 C51.1347364,38.0528013 51.6017414,36.3286213 51.8330014,34.5654013 L51.8330014,34.5654014 C51.8653107,34.2873744 51.6661174,34.0357974 51.3880904,34.0034884 C51.3686759,34.0012322 51.3491471,34.0001011 51.3296019,34.0001006 L51.3296008,34 Z M46.9413008,44 L44.4626008,44 L44.4626008,44 C44.2519398,44.0014149 44.0651058,44.135618 43.9965008,44.3348 L43.9965012,44.3347988 C43.5703772,45.5592388 43.0586472,46.7521788 42.4651012,47.9047988 L42.4651012,47.9047988 C42.3362342,48.1475908 42.428589,48.4488798 42.6713812,48.5777468 C42.8323632,48.6631911 43.0271722,48.6538124 43.1792012,48.5532987 L43.1792013,48.5532986 C44.7316413,47.5058486 46.1299813,46.2464586 47.3336013,44.8116986 L47.3336013,44.8116986 C47.5060263,44.5964286 47.4712943,44.2821396 47.256024,44.1097136 C47.1668422,44.0382815 47.055862,43.9995916 46.941601,44.0000996 L46.9413008,44 Z M34.7606008,51.226 C36.7306008,50.0938 38.4464008,47.7748 39.7150008,44.6902 L39.7150008,44.6902 C39.8177268,44.431498 39.6912834,44.138502 39.4325808,44.035776 C39.3738608,44.0124593 39.3112798,44.0003911 39.2481008,44.0002003 L34.4996007,44.0002003 L34.4996007,44.0002003 C34.2234587,44.0002003 33.9996007,44.2240583 33.9996007,44.5002003 C33.9996007,44.5002003 33.9996007,44.5002003 33.9996007,44.5002003 L33.9996007,50.7916003 L33.9996007,50.7915953 C34.0006743,51.0708283 34.2279077,51.2963213 34.5071407,51.2952512 C34.5962519,51.2949047 34.6836897,51.2710164 34.7605967,51.2260023 L34.7606008,51.226 Z M34.4996011,40.000109 L40.7525008,40.000109 L40.7525008,40.000109 C40.9906528,40.0015197 41.1970388,39.835442 41.2466008,39.6025 L41.2466011,39.6024984 C41.5882711,37.9314184 41.8129491,36.2385484 41.9190011,34.5361984 L41.9190011,34.5361982 C41.9351857,34.2567682 41.7217831,34.0171262 41.4423541,34.0009412 C41.4333456,34.0004195 41.4243247,34.0000983 41.4153011,34.0000983 L34.4996011,34.0000983 L34.4996011,34.0000983 C34.2234591,34.0000983 33.9996011,34.2239563 33.9996011,34.5000983 C33.9996011,34.5000983 33.9996011,34.5000983 33.9996011,34.5000983 L33.9996011,39.5000983 L33.9996011,39.5000983 C33.9996011,39.7762418 34.2234591,40.000109 34.4996011,40.000109 C34.4996011,40.000109 34.4996011,40.000109 34.4996011,40.000109 L34.4996011,40.000109 Z M33.9996003,13.2087 L33.9996003,19.5002 L33.9996003,19.5002001 C33.9996003,19.7763421 34.2234588,20.0002001 34.4996003,20.0002001 L39.2478008,20.0002001 L39.2478007,20.0002001 C39.5260957,19.9994408 39.7510837,19.7732221 39.7503257,19.4949271 C39.7501511,19.4316611 39.7380661,19.3689931 39.7147004,19.3102001 C38.4463004,16.2256001 36.7304004,13.9066001 34.7603004,12.7743001 L34.7603005,12.7743001 C34.5191195,12.6334641 34.2094335,12.7148109 34.0685975,12.9559921 C34.0238014,13.0327055 34.0000039,13.1198661 33.9996003,13.2087001 L33.9996003,13.2087 Z M33.9995981,24.5 L33.9995981,29.5 L33.9995981,29.5000001 C33.9995981,29.7761421 34.2234588,30.0000001 34.4995981,30.0000001 L41.4156008,30.0000001 L41.4156008,30.0000001 C41.6954958,29.9987531 41.9213848,29.7708421 41.9201429,29.4909471 C41.9201429,29.4819588 41.9198186,29.4729733 41.9193006,29.4639999 L41.9193021,29.4640241 C41.8131531,27.7616541 41.5884781,26.0687641 41.2469081,24.3976341 L41.2469081,24.3976342 C41.197387,24.1646522 40.9909901,23.9985242 40.7528081,23.9999253 L34.4995981,23.9999253 L34.4995981,23.9999253 C34.2234561,23.9999253 33.9995981,24.2237922 33.9995981,24.4999253 C33.9995981,24.4999545 33.9995981,24.4999748 33.9995981,24.4999951 L33.9995981,24.5 Z M42.4647008,16.0953 L42.4647005,16.0952995 C43.0582685,17.2479095 43.5700005,18.4408495 43.9961005,19.6652995 L43.9961005,19.6652995 C44.064714,19.8644605 44.2515555,19.9986295 44.4622005,20.0000053 L46.9412005,20.0000053 L46.9412005,20.0000053 C47.2170085,20.0013144 47.4416605,19.7787935 47.4429812,19.5029865 C47.443521,19.3885815 47.4047687,19.2774575 47.3332005,19.1881995 L47.3332001,19.1881989 C46.1297901,17.7535589 44.7317301,16.4942089 43.1796001,15.4466989 L43.1796001,15.4466989 C42.9503991,15.2948699 42.6415141,15.3575914 42.4896841,15.5867919 C42.3888781,15.7389669 42.3794441,15.9341089 42.4651003,16.0952989 L42.4647008,16.0953 Z M45.3022008,24.5871 L45.3022005,24.5870985 C45.6118205,26.2201585 45.8165725,27.8713685 45.9152005,29.5305985 L45.9152005,29.5305986 C45.9292337,29.7929376 46.1453895,29.9988316 46.4081005,30.0000986 L51.3296005,30.0000986 L51.3296005,30.0000986 C51.6094985,29.9999325 51.8362655,29.7728956 51.8360996,29.4929976 C51.8360996,29.4735153 51.834953,29.4540499 51.8327003,29.4346982 L51.8327009,29.4347028 C51.6013799,27.6714328 51.1343759,25.9472028 50.4442009,24.3082028 L50.4442009,24.3082028 C50.3643127,24.1208448 50.1800789,23.9994668 49.9764009,23.9999927 L45.7882009,23.9999927 L45.7882009,23.9999927 C45.5165929,23.9982783 45.2950129,24.2170618 45.293278,24.4886708 C45.2930781,24.5217089 45.2961981,24.554684 45.3026005,24.5870965 L45.3022008,24.5871 Z" id="Shape" fill="#9495A1"></path>
    </g>
</svg>