<?xml version="1.0" encoding="UTF-8"?>
<svg width="40px" height="40px" viewBox="0 0 40 40" version="1.1" xmlns="http://www.w3.org/2000/svg" xmlns:xlink="http://www.w3.org/1999/xlink">
    <title>favicon-dark</title>
    <g id="favicon-dark" stroke="none" stroke-width="1" fill="none" fill-rule="evenodd">
        <path d="M11.3655566,28.2 C12.3476586,28.2 13.268439,28.0135743 14.1278978,27.640723 C14.9873565,27.2678717 15.7425326,26.7502241 16.393426,26.0877801 C17.0443194,25.4253361 17.5539998,24.6592417 17.9224672,23.789497 C18.2909346,22.9197523 18.4751683,21.9879865 18.4751683,20.9941997 C18.4751683,20.0004129 18.2909346,19.0691607 17.9224672,18.2004431 C17.5539998,17.3317255 17.0443194,16.5675646 16.393426,15.9079603 C15.7425326,15.2483561 14.9873565,14.7321283 14.1278978,14.359277 C13.268439,13.9864257 12.3476586,13.8 11.3655566,13.8 C10.3777224,13.8 9.45407592,13.9864257 8.59461719,14.359277 C7.73515845,14.7321283 6.97998239,15.2483561 6.32908898,15.9079603 C5.67819558,16.5675646 5.1680375,17.3317255 4.79861474,18.2004431 C4.42919198,19.0691607 4.2444806,20.0004129 4.2444806,20.9941997 C4.2444806,21.9879865 4.42919198,22.9197523 4.79861474,23.789497 C5.1680375,24.6592417 5.67819558,25.4253361 6.32908898,26.0877801 C6.97998239,26.7502241 7.73515845,27.2678717 8.59461719,27.640723 C9.45407592,28.0135743 10.3777224,28.2 11.3655566,28.2 Z M11.3655566,25.7769196 C10.4957084,25.7769196 9.70270633,25.5627008 8.98655043,25.1342631 C8.27039453,24.7058255 7.70010897,24.1292382 7.27569375,23.4045013 C6.85127853,22.6797644 6.63907092,21.8763305 6.63907092,20.9941997 C6.63907092,20.1141232 6.85127853,19.3131363 7.27569375,18.5912391 C7.70010897,17.8693419 8.27039453,17.2941745 8.98655043,16.8657369 C9.70270633,16.4372992 10.4957084,16.2230804 11.3655566,16.2230804 C12.2296726,16.2230804 13.0184055,16.4372992 13.731755,16.8657369 C14.4451046,17.2941745 15.0153901,17.8707618 15.4426117,18.5954987 C15.8698333,19.3202356 16.083444,20.1198026 16.083444,20.9941997 C16.083444,21.8742762 15.8698333,22.6757464 15.4426117,23.3986103 C15.0153901,24.1214742 14.4451046,24.6985751 13.731755,25.1299129 C13.0184055,25.5612507 12.2296726,25.7769196 11.3655566,25.7769196 Z M28.6428625,28.2 C29.6249645,28.2 30.5457748,28.0135743 31.4052932,27.640723 C32.2648117,27.2678717 33.0214208,26.7502241 33.6751205,26.0877801 C34.3288203,25.4253361 34.8403815,24.6592417 35.2098043,23.789497 C35.5792271,22.9197523 35.7639384,21.9879865 35.7639384,20.9941997 C35.7639384,20.0004129 35.5792271,19.0691607 35.2098043,18.2004431 C34.8403815,17.3317255 34.3288203,16.5675646 33.6751205,15.9079603 C33.0214208,15.2483561 32.2648117,14.7321283 31.4052932,14.359277 C30.5457748,13.9864257 29.6249645,13.8 28.6428625,13.8 C27.6627905,13.8 26.7424878,13.9864257 25.8819543,14.359277 C25.0214208,14.7321283 24.264334,15.2483561 23.610694,15.9079603 C22.9570539,16.5675646 22.4474034,17.3317255 22.0817423,18.2004431 C21.7160813,19.0691607 21.5332507,20.0004129 21.5332507,20.9941997 C21.5332507,21.9879865 21.7160813,22.9197523 22.0817423,23.789497 C22.4474034,24.6592417 22.9570539,25.4253361 23.610694,26.0877801 C24.264334,26.7502241 25.0214208,27.2678717 25.8819543,27.640723 C26.7424878,28.0135743 27.6627905,28.2 28.6428625,28.2 Z M28.6428625,25.7769196 C27.7787464,25.7769196 26.9885806,25.5612507 26.2723649,25.1299129 C25.5561493,24.6985751 24.9863414,24.1214742 24.5629413,23.3986103 C24.1395411,22.6757464 23.9278411,21.8742762 23.9278411,20.9941997 C23.9278411,20.1198026 24.1395411,19.3202356 24.5629413,18.5954987 C24.9863414,17.8707618 25.5561493,17.2941745 26.2723649,16.8657369 C26.9885806,16.4372992 27.7787464,16.2230804 28.6428625,16.2230804 C29.5146214,16.2230804 30.3072054,16.4372992 31.0206147,16.8657369 C31.734024,17.2941745 32.3038319,17.8693419 32.7300384,18.5912391 C33.1562449,19.3131363 33.3693481,20.1141232 33.3693481,20.9941997 C33.3693481,21.8763305 33.1562449,22.6797644 32.7300384,23.4045013 C32.3038319,24.1292382 31.734024,24.7058255 31.0206147,25.1342631 C30.3072054,25.5627008 29.5146214,25.7769196 28.6428625,25.7769196 Z M5.02637668,19.3655808 L2.85569703,19.3655808 C2.28523234,19.3655808 2,19.6580736 2,20.2430593 L2,21.1085746 C2,21.6918685 2.28523234,21.9835154 2.85569703,21.9835154 L5.02637668,21.9835154 L5.02637668,19.3655808 Z M34.9850875,21.9835154 L37.144303,21.9835154 C37.7147677,21.9835154 38,21.6918685 38,21.1085746 L38,20.2430593 C38,19.6580736 37.7147677,19.3655808 37.144303,19.3655808 L34.9850875,19.3655808 L34.9850875,21.9835154 Z M17.8408741,21.6509038 C18.1359586,21.4546599 18.4780045,21.3095615 18.867012,21.2156085 C19.2560195,21.1216555 19.6350853,21.074679 20.0042095,21.074679 C20.3733337,21.074679 20.7529071,21.1216555 21.1429296,21.2156085 C21.5329522,21.3095615 21.8744906,21.4546599 22.1675449,21.6509038 L22.1675449,19.2390615 C21.8402173,19.0739943 21.4802287,18.9555108 21.0875789,18.8836111 C20.6949292,18.8117114 20.333806,18.7757615 20.0042095,18.7757615 C19.674613,18.7757615 19.3125644,18.8117114 18.9180636,18.8836111 C18.5235629,18.9555108 18.1644997,19.0739943 17.8408741,19.2390615 L17.8408741,21.6509038 Z" id="Shape" fill="#EDECE8" fill-rule="nonzero"></path>
    </g>
</svg>