<?xml version="1.0" encoding="UTF-8"?>
<svg width="32px" height="32px" viewBox="0 0 32 32" version="1.1" xmlns="http://www.w3.org/2000/svg" xmlns:xlink="http://www.w3.org/1999/xlink">
    <title>favicon-dark</title>
    <g id="favicon-dark" stroke="none" stroke-width="1" fill="none" fill-rule="evenodd" opacity="0.971191406">
        <path d="M16.0072545,27 C15.3788708,27 14.8968701,26.8310459 14.5612522,26.4931376 C14.2396185,26.1693088 14.0763876,25.7145465 14.0715597,25.1288505 L14.0718283,25.0517129 C14.0718283,24.9974561 14.0737358,24.9321108 14.0775509,24.8556771 L14.0807698,24.7962727 C14.0867309,24.6938003 14.094379,24.5812402 14.1037142,24.4585924 L14.3648493,20.7289612 C14.4056474,20.1462669 13.9706954,19.6405197 13.3933568,19.5993431 C13.1571801,19.5824987 12.9223115,19.6468685 12.727015,19.7819657 L9.96140953,21.6950852 C9.41715526,22.1065707 8.84810082,22.3123135 8.2542462,22.3123135 C7.71336611,22.3123135 7.26493839,22.1283703 6.90896303,21.760484 C6.55298768,21.3925977 6.375,20.9272828 6.375,20.3645393 C6.375,19.9198841 6.48567291,19.5344157 6.70701872,19.2081339 C6.92836453,18.881852 7.25515328,18.6256995 7.68738497,18.4396761 L10.8462292,16.9593577 C11.3711796,16.713352 11.5991419,16.0844209 11.3553973,15.5546009 C11.2511374,15.3279745 11.07075,15.1459186 10.8462038,15.0406976 L7.68738497,13.5604949 C7.25515328,13.3744715 6.92836453,13.1183189 6.70701872,12.7920371 C6.48567291,12.4657553 6.375,12.0802868 6.375,11.6356317 C6.375,11.0727742 6.55298768,10.6068039 6.90896303,10.2377207 C7.26493839,9.86863757 7.71336611,9.684096 8.2542462,9.684096 C8.84810082,9.684096 9.41715526,9.88978177 9.96140953,10.3011533 L12.7269127,12.214202 C13.2043187,12.5444497 13.8565907,12.4215642 14.183803,11.9397296 C14.3176675,11.742608 14.381445,11.5055424 14.3647437,11.2671593 L14.1037142,7.54140761 L14.0909767,7.36512994 C14.0871526,7.30887839 14.0837504,7.2551345 14.0807698,7.20389828 L14.0750472,7.0886185 C14.0736166,7.05275429 14.0726628,7.01945246 14.0721859,6.98871301 L14.0718283,6.94452562 C14.0624931,6.32410574 14.2256344,5.84491316 14.5612522,5.5069479 C14.8968701,5.16898263 15.3788708,5 16.0072545,5 C16.6285524,5 17.1081631,5.16898263 17.4460866,5.5069479 C17.76993,5.83083128 17.9343117,6.28441821 17.9392317,6.86770869 L17.9389691,6.94452562 C17.9389691,7.01496829 17.9359886,7.10142585 17.9300275,7.20389828 L17.9198206,7.36512994 L17.6418499,11.2649756 C17.6003476,11.8476192 18.0346881,12.3539014 18.6119766,12.3957887 C18.8484524,12.4129471 19.083705,12.3486692 19.2793098,12.2134539 L22.0456762,10.3011533 C22.5899305,9.88978177 23.1589849,9.684096 23.7528396,9.684096 C24.2963065,9.684096 24.7442,9.86863757 25.09652,10.2377207 C25.44884,10.6068039 25.625,11.0727742 25.625,11.6356317 C25.625,12.0802868 25.5155081,12.4657553 25.2965242,12.7920371 C25.0775403,13.1183189 24.7531697,13.3744715 24.3234124,13.5604949 L21.1588853,15.0403512 C20.6337388,15.2859302 20.4052748,15.9146757 20.6485966,16.4446937 C20.7529115,16.6719185 20.9337263,16.8544156 21.1588599,16.9597042 L24.3234124,18.4396761 C24.7531697,18.6231918 25.0775403,18.8787175 25.2965242,19.2062531 C25.5155081,19.5337888 25.625,19.9198841 25.625,20.3645393 C25.625,20.9272828 25.44884,21.3925977 25.09652,21.760484 C24.7442,22.1283703 24.2963065,22.3123135 23.7528396,22.3123135 C23.1589849,22.3123135 22.5899305,22.1065707 22.0456762,21.6950852 L19.2792056,19.7827125 C18.8016923,19.4526229 18.1494603,19.5757243 17.8224046,20.0576672 C17.6884413,20.2550728 17.6247535,20.492489 17.6417422,20.7311429 L17.9198206,24.6349983 C17.9236447,24.6912783 17.927047,24.7450365 17.9300275,24.7962727 L17.9357501,24.9109233 C17.9371808,24.946368 17.9381345,24.9790407 17.9386114,25.0089412 L17.9389691,25.0517129 C17.9483043,25.6747544 17.7840101,26.1552293 17.4460866,26.4931376 C17.1081631,26.8310459 16.6285524,27 16.0072545,27 Z" id="Path-Copy" fill="#FAF9F4" fill-rule="nonzero"></path>
    </g>
</svg>