<?xml version="1.0" encoding="UTF-8"?>
<svg width="48px" height="48px" viewBox="0 0 48 48" version="1.1" xmlns="http://www.w3.org/2000/svg" xmlns:xlink="http://www.w3.org/1999/xlink">
    <title>Favicon on Light Copy</title>
    <g id="Favicon-on-Light-Copy" stroke="none" stroke-width="1" fill="none" fill-rule="evenodd">
        <g id="favicon-dark" transform="translate(6, 17)" fill="#EDECE8" fill-rule="nonzero">
            <path d="M9.3655566,14.4 C10.3476586,14.4 11.268439,14.2135743 12.1278978,13.840723 C12.9873565,13.4678717 13.7425326,12.9502241 14.393426,12.2877801 C15.0443194,11.6253361 15.5539998,10.8592417 15.9224672,9.989497 C16.2909346,9.1197523 16.4751683,8.1879865 16.4751683,7.1941997 C16.4751683,6.2004129 16.2909346,5.2691607 15.9224672,4.4004431 C15.5539998,3.5317255 15.0443194,2.7675646 14.393426,2.1079603 C13.7425326,1.4483561 12.9873565,0.9321283 12.1278978,0.559277 C11.268439,0.1864257 10.3476586,0 9.3655566,0 C8.3777224,0 7.45407592,0.1864257 6.59461719,0.559277 C5.73515845,0.9321283 4.97998239,1.4483561 4.32908898,2.1079603 C3.67819558,2.7675646 3.1680375,3.5317255 2.79861474,4.4004431 C2.42919198,5.2691607 2.2444806,6.2004129 2.2444806,7.1941997 C2.2444806,8.1879865 2.42919198,9.1197523 2.79861474,9.989497 C3.1680375,10.8592417 3.67819558,11.6253361 4.32908898,12.2877801 C4.97998239,12.9502241 5.73515845,13.4678717 6.59461719,13.840723 C7.45407592,14.2135743 8.3777224,14.4 9.3655566,14.4 Z M9.3655566,11.9769196 C8.4957084,11.9769196 7.70270633,11.7627008 6.98655043,11.3342631 C6.27039453,10.9058255 5.70010897,10.3292382 5.27569375,9.6045013 C4.85127853,8.8797644 4.63907092,8.0763305 4.63907092,7.1941997 C4.63907092,6.3141232 4.85127853,5.5131363 5.27569375,4.7912391 C5.70010897,4.0693419 6.27039453,3.4941745 6.98655043,3.0657369 C7.70270633,2.6372992 8.4957084,2.4230804 9.3655566,2.4230804 C10.2296726,2.4230804 11.0184055,2.6372992 11.731755,3.0657369 C12.4451046,3.4941745 13.0153901,4.0707618 13.4426117,4.7954987 C13.8698333,5.5202356 14.083444,6.3198026 14.083444,7.1941997 C14.083444,8.0742762 13.8698333,8.8757464 13.4426117,9.5986103 C13.0153901,10.3214742 12.4451046,10.8985751 11.731755,11.3299129 C11.0184055,11.7612507 10.2296726,11.9769196 9.3655566,11.9769196 Z M26.6428625,14.4 C27.6249645,14.4 28.5457748,14.2135743 29.4052932,13.840723 C30.2648117,13.4678717 31.0214208,12.9502241 31.6751205,12.2877801 C32.3288203,11.6253361 32.8403815,10.8592417 33.2098043,9.989497 C33.5792271,9.1197523 33.7639384,8.1879865 33.7639384,7.1941997 C33.7639384,6.2004129 33.5792271,5.2691607 33.2098043,4.4004431 C32.8403815,3.5317255 32.3288203,2.7675646 31.6751205,2.1079603 C31.0214208,1.4483561 30.2648117,0.9321283 29.4052932,0.559277 C28.5457748,0.1864257 27.6249645,0 26.6428625,0 C25.6627905,0 24.7424878,0.1864257 23.8819543,0.559277 C23.0214208,0.9321283 22.264334,1.4483561 21.610694,2.1079603 C20.9570539,2.7675646 20.4474034,3.5317255 20.0817423,4.4004431 C19.7160813,5.2691607 19.5332507,6.2004129 19.5332507,7.1941997 C19.5332507,8.1879865 19.7160813,9.1197523 20.0817423,9.989497 C20.4474034,10.8592417 20.9570539,11.6253361 21.610694,12.2877801 C22.264334,12.9502241 23.0214208,13.4678717 23.8819543,13.840723 C24.7424878,14.2135743 25.6627905,14.4 26.6428625,14.4 Z M26.6428625,11.9769196 C25.7787464,11.9769196 24.9885806,11.7612507 24.2723649,11.3299129 C23.5561493,10.8985751 22.9863414,10.3214742 22.5629413,9.5986103 C22.1395411,8.8757464 21.9278411,8.0742762 21.9278411,7.1941997 C21.9278411,6.3198026 22.1395411,5.5202356 22.5629413,4.7954987 C22.9863414,4.0707618 23.5561493,3.4941745 24.2723649,3.0657369 C24.9885806,2.6372992 25.7787464,2.4230804 26.6428625,2.4230804 C27.5146214,2.4230804 28.3072054,2.6372992 29.0206147,3.0657369 C29.734024,3.4941745 30.3038319,4.0693419 30.7300384,4.7912391 C31.1562449,5.5131363 31.3693481,6.3141232 31.3693481,7.1941997 C31.3693481,8.0763305 31.1562449,8.8797644 30.7300384,9.6045013 C30.3038319,10.3292382 29.734024,10.9058255 29.0206147,11.3342631 C28.3072054,11.7627008 27.5146214,11.9769196 26.6428625,11.9769196 Z M3.02637668,5.5655808 L0.85569703,5.5655808 C0.28523234,5.5655808 0,5.8580736 0,6.4430593 L0,7.3085746 C0,7.8918685 0.28523234,8.1835154 0.85569703,8.1835154 L3.02637668,8.1835154 L3.02637668,5.5655808 Z M32.9850875,8.1835154 L35.144303,8.1835154 C35.7147677,8.1835154 36,7.8918685 36,7.3085746 L36,6.4430593 C36,5.8580736 35.7147677,5.5655808 35.144303,5.5655808 L32.9850875,5.5655808 L32.9850875,8.1835154 Z M15.8408741,7.8509038 C16.1359586,7.6546599 16.4780045,7.5095615 16.867012,7.4156085 C17.2560195,7.3216555 17.6350853,7.274679 18.0042095,7.274679 C18.3733337,7.274679 18.7529071,7.3216555 19.1429296,7.4156085 C19.5329522,7.5095615 19.8744906,7.6546599 20.1675449,7.8509038 L20.1675449,5.4390615 C19.8402173,5.2739943 19.4802287,5.1555108 19.0875789,5.0836111 C18.6949292,5.0117114 18.333806,4.9757615 18.0042095,4.9757615 C17.674613,4.9757615 17.3125644,5.0117114 16.9180636,5.0836111 C16.5235629,5.1555108 16.1644997,5.2739943 15.8408741,5.4390615 L15.8408741,7.8509038 Z" id="Shape"></path>
        </g>
    </g>
</svg>