<?xml version="1.0" encoding="UTF-8"?>
<svg width="48px" height="48px" viewBox="0 0 48 48" version="1.1" xmlns="http://www.w3.org/2000/svg" xmlns:xlink="http://www.w3.org/1999/xlink">
    <title>Push Pin</title>
    <g id="Push-Pin" stroke="none" stroke-width="1" fill="none" fill-rule="evenodd">
        <path d="M25.3881815,28.8963384 L22.6044019,28.8963384 L22.6044018,28.8963384 C22.2157674,28.8940332 21.8988216,29.2071848 21.8964638,29.5958192 C21.8964097,29.6069231 21.8966056,29.6180271 21.8970642,29.6291218 L21.9600631,30.9539178 L21.9600637,30.9539297 C22.1175237,34.2540271 22.4593688,37.5427356 22.9839981,40.8046417 L22.9839981,40.8046416 C23.1990328,41.3636158 23.8264889,41.6424355 24.3854638,41.427398 C24.6717943,41.317248 24.8980701,41.0909714 25.0082201,40.8046416 L25.0082214,40.8046336 C25.532694,37.5426645 25.8745888,34.253949 26.0323029,30.9538516 L26.0953018,29.6290555 L26.0953018,29.6290557 C26.1114448,29.2408658 25.8098413,28.9130876 25.4216515,28.8969459 C25.4105005,28.8964822 25.3993402,28.8963384 25.3881798,28.8963384 L25.3881815,28.8963384 Z M29.5780258,20.6946233 L29.5780259,20.6946233 C29.1697653,20.5573915 28.8813355,20.1916621 28.8430392,19.7626601 L28.2686996,12.2958951 L28.2686996,12.2958951 C28.2339019,11.8026301 28.526031,11.3447103 28.9880066,11.1683555 L28.9880061,11.1683557 C30.4002096,10.5813246 31.5600116,9.51485254 32.2631769,8.15673009 L32.2631769,8.15673006 C32.3534151,7.98974947 32.4002779,7.80278215 32.3994645,7.61297988 L32.3994645,7.61297988 C32.3994645,6.99829789 31.9011666,6.5 31.2864846,6.5 C31.2864846,6.5 31.2864846,6.5 31.2864846,6.5 L16.713238,6.5 L16.713238,6.5 C16.098556,6.5 15.6002581,6.99829789 15.6002581,7.61297988 L15.6002581,7.61297868 C15.5994448,7.80278095 15.6463068,7.98974827 15.7365449,8.15672886 L15.7365443,8.15672774 C16.4397936,9.5147802 17.5995677,10.5812319 19.0117151,11.1683533 L19.0117151,11.1683533 C19.4737159,11.3446948 19.7658955,11.8026034 19.7311621,12.2958929 L19.1571725,19.762658 L19.1571726,19.7626575 C19.1188764,20.1916595 18.8304465,20.5573881 18.4221858,20.6946207 C16.7044869,21.3045196 14.2007721,22.9791694 14.2007721,26.096493 L14.2007721,26.3829978 L14.2007721,26.3829977 C14.2007721,26.9976797 14.69907,27.4959776 15.313752,27.4959776 C15.313752,27.4959776 15.313752,27.4959776 15.313752,27.4959776 L32.686248,27.4959776 L32.686248,27.4959776 C33.30093,27.4959776 33.7992279,26.9976797 33.7992279,26.3829977 C33.7992279,26.3829977 33.7992279,26.3829977 33.7992279,26.3829977 L33.7992279,26.0964243 C33.7995779,22.9791706 31.2957231,21.3045209 29.5780242,20.6946219 L29.5780258,20.6946233 Z" id="Shape" fill="#FF009E"></path>
    </g>
</svg>