<?xml version="1.0" encoding="UTF-8"?>
<svg width="48px" height="48px" viewBox="0 0 48 48" version="1.1" xmlns="http://www.w3.org/2000/svg" xmlns:xlink="http://www.w3.org/1999/xlink">
    <title>RSS</title>
    <g id="RSS" stroke="none" stroke-width="1" fill="none" fill-rule="evenodd">
        <g id="􀖀" transform="translate(4.0862, 6.5)" fill="#FF009E" fill-rule="nonzero">
            <path d="M32.5862069,26.2789823 C33.1865285,26.9759102 34.2370913,26.9759102 34.9499732,26.1848028 C38.0641415,22.7943423 39.8275862,18.2737284 39.8275862,13.3952325 C39.8275862,8.51673662 38.0641415,3.99612267 34.9499732,0.605662205 C34.2370913,-0.185445236 33.1865285,-0.185445236 32.5862069,0.511482747 C31.9858853,1.18957484 32.1734858,2.07486174 32.8488476,2.84713329 C35.3626943,5.65368111 36.7696981,9.34551584 36.7696981,13.3952325 C36.7696981,17.4449492 35.3626943,21.1367839 32.8488476,23.9433317 C32.1734858,24.7156033 31.9858853,25.6008902 32.5862069,26.2789823 Z M0,13.3952325 C0,18.2737284 1.7634447,22.7943423 4.87761301,26.1848028 C5.59049491,26.9759102 6.64105771,26.9759102 7.24137931,26.2789823 C7.84170091,25.6008902 7.65410041,24.7156033 6.97873861,23.9433317 C4.46489191,21.1367839 3.05788815,17.4449492 3.05788815,13.3952325 C3.05788815,9.34551584 4.46489191,5.65368111 6.97873861,2.84713329 C7.65410041,2.07486174 7.84170091,1.18957484 7.24137931,0.511482747 C6.64105771,-0.185445236 5.59049491,-0.185445236 4.87761301,0.605662205 C1.7634447,3.99612267 0,8.51673662 0,13.3952325 Z M7.89798106,13.3952325 C7.89798106,16.1641085 8.83598356,18.7446257 10.4681079,20.778902 C11.1247097,21.645353 12.2503127,21.6265171 12.8693943,20.9107532 C13.4697159,20.2326611 13.2258353,19.385046 12.6255137,18.5751027 C11.4999107,17.1812467 10.9558692,15.3541652 10.9558692,13.3952325 C10.9558692,11.4362998 11.5561908,9.66572599 12.6255137,8.21536235 C13.2070752,7.38658313 13.4697159,6.5578039 12.8693943,5.87971181 C12.2503127,5.16394794 11.1247097,5.14511205 10.4681079,6.01156305 C8.83598356,8.04583933 7.89798106,10.6263565 7.89798106,13.3952325 Z M26.9581919,20.9107532 C27.5772735,21.6265171 28.7028765,21.645353 29.3594783,20.778902 C30.9916026,18.7446257 31.9296051,16.1641085 31.9296051,13.3952325 C31.9296051,10.6263565 30.9916026,8.04583933 29.3594783,6.01156305 C28.7028765,5.14511205 27.5772735,5.16394794 26.9581919,5.87971181 C26.3578703,6.5578039 26.620511,7.38658313 27.2020725,8.21536235 C28.2713954,9.66572599 28.871717,11.4362998 28.871717,13.3952325 C28.871717,15.3541652 28.3276755,17.1812467 27.2020725,18.5751027 C26.6017509,19.385046 26.3578703,20.2326611 26.9581919,20.9107532 Z M16.5463641,13.3952325 C16.5463641,14.7514167 17.3155262,15.919242 18.4786493,16.4466469 L18.4786493,33.3801133 C18.4786493,34.3407438 19.0602108,35 19.9231731,35 C20.8048955,35 21.3489369,34.3595797 21.3489369,33.3801133 L21.3489369,16.4466469 C22.4933,15.919242 23.2812221,14.7325808 23.2812221,13.3952325 C23.2812221,11.5116434 21.7991781,9.98593615 19.9231731,9.98593615 C18.0284081,9.98593615 16.5463641,11.5116434 16.5463641,13.3952325 Z" id="Shape"></path>
        </g>
    </g>
</svg>