<?xml version="1.0" encoding="UTF-8"?>
<svg width="16px" height="16px" viewBox="0 0 16 16" version="1.1" xmlns="http://www.w3.org/2000/svg" xmlns:xlink="http://www.w3.org/1999/xlink">
    <title>safari-favorite</title>
    <g id="safari-favorite" stroke="none" stroke-width="1" fill="none" fill-rule="evenodd" opacity="0.971191406">
        <path d="M8.00527598,16 C7.54826968,16 7.19772367,15.8771243 6.95363797,15.6313728 C6.71972251,15.395861 6.60100917,15.0651247 6.59749796,14.639164 L6.59769329,14.5830639 C6.59769329,14.5436044 6.59908059,14.4960806 6.60185518,14.4404924 L6.60419625,14.3972892 C6.60853155,14.3227638 6.61409382,14.2409019 6.62088307,14.1517036 L6.8107995,11.4392445 C6.84047086,11.0154669 6.52414212,10.6476507 6.1042595,10.6177041 C5.93249459,10.6054536 5.7616811,10.652268 5.6196473,10.7505205 L3.60829784,12.1418801 C3.21247656,12.4411423 2.79861878,12.5907734 2.36672451,12.5907734 C1.97335717,12.5907734 1.64722792,12.4569966 1.38833675,12.1894429 C1.12944558,11.9218892 1,11.5834784 1,11.1742104 C1,10.8508248 1.08048939,10.5704841 1.24146816,10.3331883 C1.40244693,10.0958924 1.64011148,9.9095996 1.9544618,9.77430987 L4.25180308,8.69771469 C4.63358518,8.51880145 4.79937595,8.06139705 4.62210714,7.67607337 C4.54628178,7.51125416 4.41509092,7.37884987 4.25178457,7.30232553 L1.9544618,6.22581447 C1.64011148,6.09052475 1.40244693,5.90423195 1.24146816,5.66693609 C1.08048939,5.42964022 1,5.14929951 1,4.82591395 C1,4.41656304 1.12944558,4.07767554 1.38833675,3.80925143 C1.64722792,3.54082732 1.97335717,3.40661527 2.36672451,3.40661527 C2.79861878,3.40661527 3.21247656,3.55620492 3.60829784,3.85538423 L5.61957287,5.24669239 C5.96677723,5.4868725 6.44115685,5.39750121 6.67912942,5.04707604 C6.77648547,4.90371494 6.82286909,4.73130354 6.81072267,4.55793404 L6.62088307,1.84829644 L6.61161943,1.7200945 C6.60883829,1.67918428 6.6063639,1.64009782 6.60419625,1.60283512 L6.60003436,1.51899527 C6.59899388,1.49291221 6.59830023,1.4686927 6.59795341,1.44633673 L6.59769329,1.41420045 C6.59090404,0.96298599 6.70955227,0.614482301 6.95363797,0.368689381 C7.19772367,0.12289646 7.54826968,-3.55271368e-15 8.00527598,-3.55271368e-15 C8.457129,-3.55271368e-15 8.80593679,0.12289646 9.05169936,0.368689381 C9.28722181,0.60424093 9.40677213,0.934122333 9.4103503,1.35833359 L9.41015933,1.41420045 C9.41015933,1.46543148 9.40799168,1.52830971 9.40365638,1.60283512 L9.39623319,1.7200945 L9.19407265,4.55634587 C9.16388919,4.98008667 9.4797732,5.34829196 9.89961932,5.37875541 C10.0716018,5.39123422 10.2426946,5.34448671 10.3849526,5.2461483 L12.3968554,3.85538423 C12.7926767,3.55620492 13.2065345,3.40661527 13.6384288,3.40661527 C14.0336775,3.40661527 14.3594182,3.54082732 14.6156509,3.80925143 C14.8718836,4.07767554 15,4.41656304 15,4.82591395 C15,5.14929951 14.9203695,5.42964022 14.7611085,5.66693609 C14.6018475,5.90423195 14.3659416,6.09052475 14.0533908,6.22581447 L11.7519166,7.30207358 C11.3699919,7.48067647 11.2038362,7.93794598 11.3807975,8.32341361 C11.4566629,8.48866802 11.5881646,8.62139315 11.7518981,8.69796669 L14.0533908,9.77430987 C14.3659416,9.90777584 14.6018475,10.0936127 14.7611085,10.3318204 C14.9203695,10.5700282 15,10.8508248 15,11.1742104 C15,11.5834784 14.8718836,11.9218892 14.6156509,12.1894429 C14.3594182,12.4569966 14.0336775,12.5907734 13.6384288,12.5907734 C13.2065345,12.5907734 12.7926767,12.4411423 12.3968554,12.1418801 L10.3848768,10.7510637 C10.0375944,10.5109985 9.56324384,10.6005267 9.32538514,10.9510307 C9.22795729,11.0945984 9.18163891,11.2672648 9.19399435,11.4408312 L9.39623319,14.2799988 C9.39901433,14.3209297 9.40148873,14.3600265 9.40365638,14.3972892 L9.40781827,14.4806715 C9.40885874,14.5064495 9.40955239,14.5302114 9.40989921,14.5519572 L9.41015933,14.5830639 C9.41694858,15.036185 9.29746192,15.3856213 9.05169936,15.6313728 C8.80593679,15.8771243 8.457129,16 8.00527598,16 Z" id="Path-Copy" fill="#000000" fill-rule="nonzero"></path>
    </g>
</svg>