<?xml version="1.0" encoding="UTF-8"?>
<svg width="48px" height="48px" viewBox="0 0 48 48" version="1.1" xmlns="http://www.w3.org/2000/svg" xmlns:xlink="http://www.w3.org/1999/xlink">
    <title>Site</title>
    <g id="Site" stroke="none" stroke-width="1" fill="none" fill-rule="evenodd" opacity="0.971191406">
        <path d="M23.699371,42.5 C22.6711068,42.5 21.8823783,42.2235296 21.3331854,41.6705888 C20.8068756,41.1406872 20.5397706,40.3965306 20.5318704,39.4381191 L20.5323099,39.3118938 C20.5323099,39.2231099 20.5354313,39.1161813 20.5416742,38.9911079 L20.5469416,38.8939008 C20.556696,38.7262186 20.5692111,38.5420293 20.5844869,38.341333 L21.0117989,32.2383001 C21.0785594,31.2848004 20.3668198,30.4572141 19.4220839,30.3898342 C19.0356128,30.3622706 18.6512825,30.467603 18.3317064,30.6886711 L13.8061701,33.8192303 C12.9155723,34.4925703 11.9843923,34.8292402 11.0126301,34.8292402 C10.1275536,34.8292402 9.39376282,34.5282424 8.81125769,33.9262466 C8.22875256,33.3242508 7.9375,32.5628264 7.9375,31.6419734 C7.9375,30.9143559 8.11860112,30.2835893 8.48080336,29.7496736 C8.8430056,29.2157579 9.37775083,28.7965991 10.085039,28.4921972 L15.2540569,26.0698581 C16.1130667,25.6673033 16.4860959,24.6381434 16.0872411,23.7711651 C15.916634,23.4003219 15.6214546,23.1024122 15.2540153,22.9302325 L10.085039,20.5080826 C9.37775083,20.2036807 8.8430056,19.7845219 8.48080336,19.2506062 C8.11860112,18.7166905 7.9375,18.0859239 7.9375,17.3583064 C7.9375,16.4372668 8.22875256,15.67477 8.81125769,15.0708157 C9.39376282,14.4668615 10.1275536,14.1648844 11.0126301,14.1648844 C11.9843923,14.1648844 12.9155723,14.5014611 13.8061701,15.1746145 L18.331539,18.3050579 C19.1127488,18.8454631 20.1801029,18.6443777 20.7155412,17.8559211 C20.9345923,17.5333586 21.0389554,17.145433 21.011626,16.7553516 L20.5844869,10.658667 L20.5636437,10.3702126 C20.5573862,10.2781646 20.5518188,10.1902201 20.5469416,10.106379 L20.5375773,9.91773937 C20.5352362,9.85905247 20.5336755,9.80455857 20.5328952,9.75425765 L20.5323099,9.68195101 C20.5170341,8.66671848 20.7839926,7.88258518 21.3331854,7.32955111 C21.8823783,6.77651704 22.6711068,6.5 23.699371,6.5 C24.7160403,6.5 25.5008578,6.77651704 26.0538236,7.32955111 C26.5837491,7.85954209 26.8527373,8.60177525 26.8607882,9.55625058 L26.8603585,9.68195101 C26.8603585,9.79722084 26.8554813,9.93869684 26.8457268,10.106379 L26.8290247,10.3702126 L26.3741635,16.7517782 C26.3062507,17.705195 27.0169897,18.5336569 27.9616435,18.6021997 C28.348604,18.630277 28.7335628,18.5250951 29.0536433,18.3038337 L33.5804248,15.1746145 C34.4710226,14.5014611 35.4022026,14.1648844 36.3739647,14.1648844 C37.2632743,14.1648844 37.9961909,14.4668615 38.5727145,15.0708157 C39.1492382,15.67477 39.4375,16.4372668 39.4375,17.3583064 C39.4375,18.0859239 39.2583314,18.7166905 38.8999941,19.2506062 C38.5416568,19.7845219 38.0108686,20.2036807 37.3076294,20.5080826 L32.1293124,22.9296655 C31.2699817,23.3315221 30.8961315,24.3603785 31.2942945,25.2276806 C31.4649915,25.5995031 31.7608704,25.8981346 32.1292708,26.0704251 L37.3076294,28.4921972 C38.0108686,28.7924956 38.5416568,29.2106286 38.8999941,29.746596 C39.2583314,30.2825634 39.4375,30.9143559 39.4375,31.6419734 C39.4375,32.5628264 39.1492382,33.3242508 38.5727145,33.9262466 C37.9961909,34.5282424 37.2632743,34.8292402 36.3739647,34.8292402 C35.4022026,34.8292402 34.4710226,34.4925703 33.5804248,33.8192303 L29.0534727,30.6898932 C28.2720874,30.1497466 27.2047986,30.3511852 26.6696166,31.139819 C26.4504039,31.4628464 26.3461876,31.8513457 26.3739873,32.2418702 L26.8290247,38.6299972 C26.8352822,38.7220918 26.8408496,38.8100597 26.8457268,38.8939008 L26.8550911,39.0815108 C26.8574322,39.1395113 26.8589929,39.1929756 26.8597732,39.2419038 L26.8603585,39.3118938 C26.8756343,40.3314163 26.6067893,41.117648 26.0538236,41.6705888 C25.5008578,42.2235296 24.7160403,42.5 23.699371,42.5 Z" id="Path-Copy" stroke="#FF009E" stroke-width="2.5" fill-rule="nonzero"></path>
    </g>
</svg>