<?xml version="1.0" encoding="UTF-8"?>
<svg width="48px" height="48px" viewBox="0 0 48 48" version="1.1" xmlns="http://www.w3.org/2000/svg" xmlns:xlink="http://www.w3.org/1999/xlink">
    <title>Tag</title>
    <g id="Tag" stroke="none" stroke-width="1" fill="none" fill-rule="evenodd">
        <path d="M41.8634443,1.50072299 L27.9822187,1.50532512 L27.982219,1.50532512 C26.3546838,1.50586242 24.7940431,2.15295917 23.6436456,3.30424327 L2.4014801,24.561647 L2.40147988,24.5616472 C1.20097047,25.7630872 1.20097047,27.7100301 2.40148032,28.9114701 L19.0766028,45.5999899 L19.0766027,45.5999898 C20.2758031,46.8002333 22.2209255,46.8010719 23.421169,45.6018761 C23.421798,45.6012476 23.4224267,45.6006189 23.4230552,45.5999899 L44.6667547,24.3408477 L44.6667546,24.3408478 C45.8163032,23.1905118 46.4621853,21.6308835 46.4625024,20.0046267 L46.4673093,6.10437898 L46.4673093,6.10443333 C46.4681866,3.56275323 44.408463,1.50159596 41.8667727,1.50072299 C41.8656816,1.50072299 41.8645904,1.50072299 41.8634993,1.50072299 L41.8634443,1.50072299 Z M37.2371873,13.8139558 L37.2371871,13.8139558 C35.538493,13.8153667 34.1602905,12.4394544 34.1588781,10.7407602 C34.1574672,9.04206607 35.5333795,7.66386363 37.2320737,7.66245123 C38.9307678,7.66104037 40.3089703,9.0369526 40.3103829,10.7356468 C40.3103829,10.7364987 40.3103829,10.7373506 40.3103829,10.7382024 L40.3103829,10.7383682 C40.310969,12.4363261 38.9349825,13.8132604 37.2370246,13.8138535 C37.2369904,13.8138535 37.2369562,13.8138535 37.2369221,13.8138536 L37.2371873,13.8139558 Z" id="Shape" fill="#FF009E"></path>
    </g>
</svg>