<?xml version="1.0" encoding="UTF-8"?>
<svg width="156px" height="156px" viewBox="0 0 156 156" version="1.1" xmlns="http://www.w3.org/2000/svg" xmlns:xlink="http://www.w3.org/1999/xlink">
    <title>touch-icon</title>
    <defs>
        <radialGradient cx="50%" cy="50%" fx="50%" fy="50%" r="50%" id="radialGradient-1">
            <stop stop-color="#FAF9F4" offset="0%"></stop>
            <stop stop-color="#DFDCCE" offset="100%"></stop>
        </radialGradient>
        <linearGradient x1="50%" y1="0%" x2="50%" y2="100%" id="linearGradient-2">
            <stop stop-color="#242421" offset="0%"></stop>
            <stop stop-color="#1E1E1D" offset="100%"></stop>
        </linearGradient>
        <path d="M78.0346707,130.142857 C75.0314864,130.142857 72.7278984,129.335388 71.1239067,127.72045 C69.5867479,126.172801 68.8066317,123.999391 68.783558,121.200221 L68.7848416,120.831563 C68.7848416,120.572258 68.7939582,120.259958 68.8121912,119.894664 L68.8275753,119.610758 C68.8560645,119.121019 68.8926165,118.58307 68.9372316,117.996909 L70.1852539,100.172178 C70.3802371,97.3873537 68.3015054,94.970276 65.5422767,94.7734841 C64.4135359,94.6929807 63.2910472,95.0006182 62.3576823,95.6462775 L49.1402429,104.789498 C46.5391317,106.756078 43.8194948,107.739368 40.9813325,107.739368 C38.3963471,107.739368 36.253212,106.860263 34.5519272,105.102054 C32.8506424,103.343844 32,101.120001 32,98.4305255 C32,96.3054204 32.5289303,94.4631814 33.5867908,92.9038086 C34.6446513,91.3444358 36.2064469,90.120226 38.2721775,89.2311792 L53.3689916,82.1564108 C55.8778455,80.9806952 56.9673277,77.9748949 55.8024183,75.4427679 C55.3041374,74.3596702 54.4420261,73.4895848 53.36887,72.9867107 L38.2721775,65.9124951 C36.2064469,65.0234483 34.6446513,63.7992385 33.5867908,62.2398657 C32.5289303,60.6804929 32,58.8382539 32,56.7131488 C32,54.0231286 32.8506424,51.7961535 34.5519272,50.0322237 C36.253212,48.2682938 38.3963471,47.3863289 40.9813325,47.3863289 C43.8194948,47.3863289 46.5391317,48.3693466 49.1402429,50.3353821 L62.3571932,59.4782643 C64.6388218,61.0565907 67.7561736,60.4692937 69.3199934,58.1664997 C69.9597617,57.2244124 70.2645683,56.0914233 70.184749,54.952138 L68.9372316,37.1459481 L68.8763562,36.3034782 C68.8580802,36.0346396 68.8418199,35.7777857 68.8275753,35.5329165 L68.8002258,34.9819689 C68.7933884,34.810566 68.7888301,34.6514091 68.786551,34.5044985 L68.7848416,34.2933172 C68.7402266,31.3281937 69.5199149,29.0380266 71.1239067,27.4228159 C72.7278984,25.8076053 75.0314864,25 78.0346707,25 C81.0039906,25 83.2961561,25.8076053 84.9111672,27.4228159 C86.4588862,28.9707261 87.2445026,31.1385182 87.2680163,33.9261922 L87.2667613,34.2933172 C87.2667613,34.6299783 87.2525168,35.0431781 87.2240276,35.5329165 L87.1752467,36.3034782 L85.8467631,54.9417014 C85.6484147,57.7262838 87.7242239,60.1459186 90.4832127,60.346107 C91.613383,60.4281106 92.7377072,60.1209126 93.6725456,59.4746888 L106.893621,50.3353821 C109.494733,48.3693466 112.21437,47.3863289 115.052532,47.3863289 C117.649881,47.3863289 119.790462,48.2682938 121.474277,50.0322237 C123.158092,51.7961535 124,54.0231286 124,56.7131488 C124,58.8382539 123.476714,60.6804929 122.430141,62.2398657 C121.383569,63.7992385 119.83333,65.0234483 117.779425,65.9124951 L102.655452,72.9850549 C100.145661,74.1587311 99.0537808,77.163645 100.21667,79.696718 C100.715213,80.7826756 101.579367,81.6548693 102.65533,82.1580668 L117.779425,89.2311792 C119.83333,90.1082413 121.383569,91.3294549 122.430141,92.8948201 C123.476714,94.4601852 124,96.3054204 124,98.4305255 C124,101.120001 123.158092,103.343844 121.474277,105.102054 C119.790462,106.860263 117.649881,107.739368 115.052532,107.739368 C112.21437,107.739368 109.494733,106.756078 106.893621,104.789498 L93.6720474,95.6498469 C91.3899061,94.0722757 88.2727453,94.6606043 86.7096738,96.9639158 C86.0694336,97.907361 85.7650557,99.0420256 85.8462486,100.182605 L87.1752467,118.839992 C87.1935228,119.108967 87.2097831,119.365889 87.2240276,119.610758 L87.2513772,120.158698 C87.2582146,120.328097 87.2627728,120.484246 87.265052,120.627147 L87.2667613,120.831563 C87.3113764,123.809216 86.5261783,126.105512 84.9111672,127.72045 C83.2961561,129.335388 81.0039906,130.142857 78.0346707,130.142857 Z" id="path-3"></path>
        <filter x="-10.3%" y="-9.0%" width="120.7%" height="118.1%" filterUnits="objectBoundingBox" id="filter-4">
            <feMorphology radius="2" operator="dilate" in="SourceAlpha" result="shadowSpreadOuter1"></feMorphology>
            <feOffset dx="0" dy="0" in="shadowSpreadOuter1" result="shadowOffsetOuter1"></feOffset>
            <feGaussianBlur stdDeviation="1.5" in="shadowOffsetOuter1" result="shadowBlurOuter1"></feGaussianBlur>
            <feComposite in="shadowBlurOuter1" in2="SourceAlpha" operator="out" result="shadowBlurOuter1"></feComposite>
            <feColorMatrix values="0 0 0 0 0.141176471   0 0 0 0 0.141176471   0 0 0 0 0.133333333  0 0 0 0.109975962 0" type="matrix" in="shadowBlurOuter1"></feColorMatrix>
        </filter>
    </defs>
    <g id="touch-icon" stroke="none" stroke-width="1" fill="none" fill-rule="evenodd">
        <polygon id="Rectangle" fill="url(#radialGradient-1)" points="0 0 156 0 156 156 0 156"></polygon>
        <g id="Path-Copy" opacity="0.971191406" fill-rule="nonzero">
            <use fill="black" fill-opacity="1" filter="url(#filter-4)" xlink:href="#path-3"></use>
            <use fill="url(#linearGradient-2)" xlink:href="#path-3"></use>
            <use stroke="#242422" stroke-width="1" xlink:href="#path-3"></use>
            <path stroke-opacity="0.0434058129" stroke="#FFFFFF" stroke-width="1" d="M78.0346707,25.5 C80.8443233,25.5 83.0256214,26.2441877 84.557592,27.7763475 C86.0221391,29.2410755 86.7458359,31.2987026 86.7680171,33.9253006 C86.7667841,34.6167565 86.7528616,35.02272 86.7250265,35.5013269 L86.676512,36.2679297 L85.3480268,54.906176 C85.2390927,56.4354839 85.7549524,57.8644254 86.6765005,58.9386137 C87.5995698,60.0145751 88.9294906,60.7346855 90.4470285,60.844796 C91.6907346,60.9350376 92.9280762,60.5971512 93.9568614,59.8859849 L107.186715,50.7406103 C109.694257,48.8430085 112.314569,47.8863289 115.052532,47.8863289 C117.5019,47.8863289 119.523623,48.7128827 121.112606,50.3774684 C122.709408,52.0502451 123.5,54.1643441 123.5,56.7131488 C123.5,58.7298806 123.008785,60.4804736 122.014977,61.9612285 C121.016686,63.4486633 119.532969,64.6097934 117.574227,65.4564834 L102.443648,72.5321323 C101.064255,73.1771899 100.074034,74.3251512 99.5888681,75.6603538 C99.1042211,76.994129 99.1237616,78.5144982 99.7622661,79.9053265 C100.310368,81.0992345 101.26068,82.0578057 102.443514,82.6109838 L117.575347,89.687715 C119.533442,90.5224815 121.016609,91.6801931 122.014484,93.1727206 C123.008517,94.6595021 123.5,96.4132975 123.5,98.4305255 C123.5,100.978331 122.709698,103.089153 121.113167,104.756222 C119.524037,106.415564 117.502091,107.239368 115.052532,107.239368 C112.314576,107.239368 109.694275,106.282417 107.186743,104.384289 L93.9563632,95.2385508 C92.7005749,94.3704645 91.2150289,94.098529 89.8284773,94.3602248 C88.4427708,94.6217612 87.1555728,95.4164209 86.2959451,96.6831515 C85.5927976,97.7192957 85.2583373,98.9654212 85.3475123,100.218131 L86.6763969,118.873887 C86.6945578,119.141167 86.7107167,119.396469 86.7246493,119.635683 L86.7515799,120.175231 C86.8072227,123.63361 86.0942558,125.830324 84.5576218,127.366888 C83.0256442,128.898797 80.8443362,129.642857 78.0346707,129.642857 C75.1931857,129.642857 73.0003136,128.900139 71.4786603,127.368101 C70.0236362,125.903147 69.30533,123.839412 69.283557,121.201243 C69.2848171,120.584779 69.2936703,120.278195 69.3113891,119.922974 C69.3550396,119.153258 69.3914011,118.61804 69.4360105,118.031832 L70.6840328,100.207101 C70.7911188,98.6776573 70.2735308,97.2493499 69.3506838,96.1762952 C68.426313,95.1014686 67.0955203,94.3829934 65.577847,94.2747509 C64.3357149,94.1861604 63.1003942,94.5245304 62.0732311,95.2350749 L48.8470563,104.384338 C46.3395437,106.282433 43.719265,107.239368 40.9813325,107.239368 C38.5422504,107.239368 36.5174541,106.414313 34.9112496,104.754365 C33.2986278,103.087785 32.5,100.977651 32.5,98.4305255 C32.5,96.4145835 32.9964315,94.6646806 34.0005638,93.1845074 C35.0102017,91.6962188 36.5058202,90.5344517 38.4770841,89.6873345 L53.5811628,82.6091618 C54.9600374,81.9629845 55.9493409,80.8142208 56.4334402,79.4786267 C56.917023,78.1444578 56.8962687,76.6241047 56.2566546,75.2337957 C55.7088419,74.0430322 54.7607776,73.0867768 53.581029,72.533954 L38.477078,65.4563372 C36.5058171,64.6092202 35.0102006,63.447454 34.0005638,61.9591668 C32.9964315,60.4789937 32.5,58.7290908 32.5,56.7131488 C32.5,54.1650244 33.2989183,52.0516142 34.9118134,50.3793287 C36.5178688,48.7141349 38.5424416,47.8863289 40.9813325,47.8863289 C43.719272,47.8863289 46.3395621,48.8429919 48.8470839,50.7405609 L62.072742,59.8894669 C63.3282479,60.7579684 64.8137051,61.0303952 66.2003412,60.7691583 C67.5861335,60.5080804 68.8735904,59.713846 69.7336303,58.4473991 C70.43626,57.4127456 70.7711911,56.1684595 70.6835263,54.9171932 L69.4359314,37.1099129 L69.3752049,36.2695657 C69.3570445,36.0024281 69.3408859,35.7471994 69.3269604,35.5081265 L69.3000243,34.965507 C69.2443522,31.503389 69.9522918,29.3122094 71.47869,27.7751351 C73.0003364,26.2428458 75.1931987,25.5 78.0346707,25.5 Z" stroke-linejoin="square"></path>
        </g>
    </g>
</svg>