<?xml version="1.0" encoding="UTF-8"?>
<svg width="156px" height="156px" viewBox="0 0 156 156" version="1.1" xmlns="http://www.w3.org/2000/svg" xmlns:xlink="http://www.w3.org/1999/xlink">
    <title>touch-icon</title>
    <defs>
        <radialGradient cx="50%" cy="50%" fx="50%" fy="50%" r="50%" id="radialGradient-1">
            <stop stop-color="#252015" offset="0%"></stop>
            <stop stop-color="#1E1E1D" offset="100%"></stop>
        </radialGradient>
    </defs>
    <g id="touch-icon" stroke="none" stroke-width="1" fill="none" fill-rule="evenodd">
        <path d="M48.7138188,0 L107.286181,3.62733656e-15 C124.225037,-2.107587e-15 130.367476,1.76368661 136.560068,5.07552137 C142.752661,8.38735613 147.612644,13.247339 150.924479,19.4399316 C154.236313,25.6325242 156,31.7749627 156,48.7138188 L156,107.286181 C156,124.225037 154.236313,130.367476 150.924479,136.560068 C147.612644,142.752661 142.752661,147.612644 136.560068,150.924479 C130.367476,154.236313 124.225037,156 107.286181,156 L48.7138188,156 C31.7749627,156 25.6325242,154.236313 19.4399316,150.924479 C13.247339,147.612644 8.38735613,142.752661 5.07552137,136.560068 C1.76368661,130.367476 0,124.225037 0,107.286181 L0,48.7138188 C0,31.7749627 1.76368661,25.6325242 5.07552137,19.4399316 C8.38735613,13.247339 13.247339,8.38735613 19.4399316,5.07552137 C25.6325242,1.76368661 31.7749627,0 48.7138188,0 Z" id="Rectangle" fill="url(#radialGradient-1)"></path>
        <path d="M78.108288,129.708873 C75.110191,129.708873 72.8105051,128.910181 71.2092305,127.312796 C69.6079558,125.715412 68.8295882,123.444076 68.8741277,120.498788 C68.8741277,120.17818 68.8883481,119.775668 68.916789,119.291253 C68.9452299,118.806838 68.9817201,118.274736 69.0262595,117.694946 L70.2721677,100.063962 C70.4668206,97.3094077 68.3916102,94.9186026 65.6370555,94.7239497 C64.5102267,94.6443214 63.3896396,94.948615 62.4578557,95.5872562 L49.2628061,104.631094 L49.2628061,104.631094 C46.666101,106.576298 43.9510712,107.5489 41.1177165,107.5489 C38.53711,107.5489 36.3976053,106.679351 34.6992024,104.940252 C33.0007995,103.201153 32.1515981,101.001483 32.1515981,98.3412406 C32.1515981,96.2392345 32.6796323,94.4170199 33.7357009,92.8745968 C34.7917694,91.3321736 36.3509194,90.1212705 38.4131508,89.2418872 L53.4843915,82.2440186 C55.9889954,81.0810825 57.0766322,78.1079539 55.9136961,75.60335 C55.4162592,74.5320251 54.5556083,73.6713972 53.4842701,73.173989 L38.4131508,66.1766671 L38.4131508,66.1766671 C36.3509194,65.2972839 34.7917694,64.0863807 33.7357009,62.5439576 C32.6796323,61.0015345 32.1515981,59.1793199 32.1515981,57.0773137 C32.1515981,54.4165328 33.0007995,52.213764 34.6992024,50.4690074 C36.3976053,48.7242507 38.53711,47.8518723 41.1177165,47.8518723 C43.9510712,47.8518723 46.666101,48.8242051 49.2628061,50.7688706 L62.4573674,59.8123736 C64.735131,61.3735443 67.8472022,60.7926309 69.4083729,58.5148673 C70.0470575,57.5830201 70.3513478,56.4623461 70.2716636,55.3354443 L69.0262595,37.7227999 L69.0262595,37.7227999 C68.9817201,37.1435493 68.9452299,36.6117165 68.916789,36.1273013 C68.8883481,35.6428862 68.8741277,35.2341777 68.8741277,34.901176 C68.8295882,31.968282 69.6079558,29.703008 71.2092305,28.105354 C72.8105051,26.5077 75.110191,25.7088731 78.108288,25.7088731 C81.0725779,25.7088731 83.3608606,26.5077 84.973136,28.105354 C86.5854113,29.703008 87.3692793,31.968282 87.3247398,34.901176 C87.3247398,35.2341777 87.3105194,35.6428862 87.2820785,36.1273013 C87.2536376,36.6117165 87.2171474,37.1435493 87.172608,37.7227999 L85.907147,55.3251212 C85.7091346,58.0794364 87.7814274,60.4727708 90.5357426,60.6707832 C91.6639985,60.7518955 92.7864182,60.4480366 93.7196729,59.808837 L106.918353,50.7688706 L106.918353,50.7688706 C109.515058,48.8242051 112.230088,47.8518723 115.063442,47.8518723 C117.656391,47.8518723 119.793347,48.7242507 121.47431,50.4690074 C123.155273,52.213764 123.995754,54.4165328 123.995754,57.0773137 C123.995754,59.1793199 123.473354,61.0015345 122.428555,62.5439576 C121.383755,64.0863807 119.836142,65.2972839 117.785717,66.1766671 L102.687363,73.1723513 C100.181823,74.3332701 99.0917926,77.3055219 100.252711,79.8110615 C100.750411,80.8852152 101.613101,81.7479286 102.687241,82.2456566 L117.785717,89.2418872 L117.785717,89.2418872 C119.836142,90.109416 121.383755,91.3173556 122.428555,92.8657059 C123.473354,94.4140563 123.995754,96.2392345 123.995754,98.3412406 C123.995754,101.001483 123.155273,103.201153 121.47431,104.940252 C119.793347,106.679351 117.656391,107.5489 115.063442,107.5489 C112.230088,107.5489 109.515058,106.576298 106.918353,104.631094 L93.7191756,95.5907868 C91.4409001,94.0303631 88.3290196,94.6122969 86.7685959,96.8905723 C86.1294403,97.8237628 85.825578,98.946094 85.9066334,100.074276 L87.172608,117.694946 L87.172608,117.694946 C87.2171474,118.274736 87.2536376,118.806838 87.2820785,119.291253 C87.3105194,119.775668 87.3247398,120.17818 87.3247398,120.498788 C87.3692793,123.444076 86.5854113,125.715412 84.973136,127.312796 C83.3608606,128.910181 81.0725779,129.708873 78.108288,129.708873 Z" id="Path-Copy" fill="#F3EFE5" fill-rule="nonzero" opacity="0.971191406"></path>
    </g>
</svg>