<?xml version="1.0" encoding="UTF-8"?>
<svg width="39px" height="39px" viewBox="0 0 39 39" version="1.1" xmlns="http://www.w3.org/2000/svg" xmlns:xlink="http://www.w3.org/1999/xlink">
    <title>Artboard</title>
    <g id="Artboard" stroke="none" stroke-width="1" fill="none" fill-rule="evenodd">
        <g id="twitter" transform="translate(3, 6)" fill="#000000" fill-rule="nonzero">
            <path d="M34,3.31370452 C32.7466294,3.87762547 31.4031642,4.2562577 29.9908037,4.42811922 C31.4323125,3.55269927 32.5399422,2.16706579 33.0593093,0.518269714 C31.7131944,1.32655574 30.2160393,1.91464454 28.6287895,2.23151386 C27.3568699,0.856621731 25.5443845,0 23.5384615,0 C19.6856055,0 16.5614529,3.1633257 16.5614529,7.06780487 C16.5614529,7.62098378 16.6250489,8.16073618 16.7442912,8.67900659 C10.9464578,8.38361926 5.80843256,5.56938693 2.36630074,1.29164654 C1.7647886,2.33892731 1.42296039,3.55269927 1.42296039,4.84703166 C1.42296039,7.29874344 2.65248264,9.46312475 4.52591366,10.7332886 C3.38118605,10.6956936 2.30535442,10.3761391 1.36466374,9.84712732 C1.36466374,9.87666619 1.36466374,9.90620506 1.36466374,9.93574393 C1.36466374,13.3622329 3.77071159,16.2167448 6.95846018,16.8692816 C6.37549704,17.0304018 5.75808625,17.1163326 5.12212647,17.1163326 C4.67165462,17.1163326 4.23443243,17.0733672 3.80780958,16.9874364 C4.69815328,19.7936126 7.27379041,21.8425243 10.323747,21.8989162 C7.93889784,23.7947639 4.93133853,24.9226051 1.66144497,24.9226051 C1.09703083,24.9226051 0.543216022,24.890381 0,24.8232478 C3.08440482,26.8318793 6.75177291,28 10.6920739,28 C23.5225629,28 30.5393192,17.229117 30.5393192,7.8895174 C30.5393192,7.58338942 30.5313695,7.27457558 30.5207702,6.97381793 C31.8827837,5.97755803 33.0646093,4.73156203 34,3.31370452 Z" id="Path"></path>
        </g>
    </g>
</svg>