<?xml version="1.0" encoding="UTF-8"?>
<svg width="40px" height="40px" viewBox="0 0 40 40" version="1.1" xmlns="http://www.w3.org/2000/svg" xmlns:xlink="http://www.w3.org/1999/xlink">
    <title>Twitter</title>
    <g id="Twitter" stroke="none" stroke-width="1" fill="none" fill-rule="evenodd">
        <path d="M37,9.31370452 C35.7466294,9.87762547 34.4031642,10.2562577 32.9908037,10.4281192 C34.4323125,9.55269927 35.5399422,8.16706579 36.0593093,6.51826971 C34.7131944,7.32655574 33.2160393,7.91464454 31.6287895,8.23151386 C30.3568699,6.85662173 28.5443845,6 26.5384615,6 C22.6856055,6 19.5614529,9.1633257 19.5614529,13.0678049 C19.5614529,13.6209838 19.6250489,14.1607362 19.7442912,14.6790066 C13.9464578,14.3836193 8.80843256,11.5693869 5.36630074,7.29164654 C4.7647886,8.33892731 4.42296039,9.55269927 4.42296039,10.8470317 C4.42296039,13.2987434 5.65248264,15.4631248 7.52591366,16.7332886 C6.38118605,16.6956936 5.30535442,16.3761391 4.36466374,15.8471273 C4.36466374,15.8766662 4.36466374,15.9062051 4.36466374,15.9357439 C4.36466374,19.3622329 6.77071159,22.2167448 9.95846018,22.8692816 C9.37549704,23.0304018 8.75808625,23.1163326 8.12212647,23.1163326 C7.67165462,23.1163326 7.23443243,23.0733672 6.80780958,22.9874364 C7.69815328,25.7936126 10.2737904,27.8425243 13.323747,27.8989162 C10.9388978,29.7947639 7.93133853,30.9226051 4.66144497,30.9226051 C4.09703083,30.9226051 3.54321602,30.890381 3,30.8232478 C6.08440482,32.8318793 9.75177291,34 13.6920739,34 C26.5225629,34 33.5393192,23.229117 33.5393192,13.8895174 C33.5393192,13.5833894 33.5313695,13.2745756 33.5207702,12.9738179 C34.8827837,11.977558 36.0646093,10.731562 37,9.31370452 Z" id="Path" fill="#000000" fill-rule="nonzero"></path>
    </g>
</svg>